<svg id="svg" version="1.1" width="512" height="512" xmlns="http://www.w3.org/2000/svg" xmlns:xlink="http://www.w3.org/1999/xlink" style="display: block;"><g id="svgg"><path id="path0" d="" stroke="none" fill="#555555" fill-rule="evenodd"></path><path id="path1" d="" stroke="none" fill="#ffffff" fill-rule="evenodd"></path><path id="path2" d="M177.293 45.600 C 177.018 46.040,176.931 46.400,177.100 46.400 C 177.269 46.400,177.632 46.040,177.907 45.600 C 178.182 45.160,178.269 44.800,178.100 44.800 C 177.931 44.800,177.568 45.160,177.293 45.600 M233.800 54.520 C 232.170 56.518,232.147 56.561,233.041 56.005 C 233.939 55.446,235.009 53.990,234.503 54.015 C 234.337 54.024,234.020 54.251,233.800 54.520 M172.101 60.600 C 172.105 61.480,172.187 61.793,172.283 61.295 C 172.379 60.798,172.375 60.078,172.275 59.695 C 172.175 59.313,172.096 59.720,172.101 60.600 M308.433 82.946 C 309.240 83.651,310.552 84.073,310.051 83.465 C 309.749 83.099,309.224 82.800,308.884 82.800 C 308.545 82.800,308.342 82.866,308.433 82.946 M312.088 85.592 C 312.360 86.028,312.852 86.488,313.182 86.614 C 313.512 86.741,313.349 86.384,312.821 85.822 C 311.669 84.597,311.417 84.517,312.088 85.592 M318.790 106.481 C 318.684 107.516,318.745 108.215,318.926 108.034 C 319.107 107.853,319.193 107.007,319.119 106.153 L 318.983 104.600 318.790 106.481 M340.400 133.791 C 340.400 133.876,340.940 134.330,341.600 134.800 C 342.260 135.270,342.799 135.507,342.797 135.327 C 342.796 135.147,342.256 134.693,341.597 134.319 C 340.939 133.944,340.400 133.707,340.400 133.791 M345.162 138.329 C 345.405 138.784,345.801 139.277,346.042 139.426 C 346.356 139.620,346.354 139.462,346.038 138.871 C 345.795 138.416,345.399 137.923,345.158 137.774 C 344.844 137.580,344.846 137.738,345.162 138.329 M342.254 166.233 C 341.623 166.787,341.210 167.344,341.336 167.469 C 341.461 167.595,342.126 167.136,342.813 166.449 C 344.302 164.959,343.885 164.798,342.254 166.233 " stroke="none" fill="#550000" fill-rule="evenodd"></path><path id="path3" d="M186.400 40.766 C 186.070 40.954,185.170 41.241,184.400 41.404 C 183.630 41.567,182.910 41.823,182.800 41.973 C 182.690 42.122,181.790 42.639,180.800 43.122 C 179.810 43.605,179.133 44.000,179.295 44.000 C 179.457 44.000,178.692 44.847,177.595 45.883 C 176.498 46.918,175.600 47.998,175.600 48.283 C 175.600 48.567,175.447 48.800,175.261 48.800 C 175.074 48.800,174.606 49.565,174.220 50.500 C 173.834 51.435,173.356 52.513,173.159 52.895 C 172.962 53.277,172.800 54.042,172.800 54.595 C 172.800 55.148,172.665 55.600,172.500 55.600 C 172.335 55.600,172.211 56.455,172.224 57.500 C 172.262 60.467,172.841 64.400,173.239 64.400 C 173.438 64.400,173.600 64.778,173.600 65.240 C 173.600 67.158,179.252 74.400,180.748 74.400 C 180.997 74.400,181.200 74.560,181.200 74.755 C 181.200 74.951,181.830 75.229,182.600 75.374 C 183.370 75.518,184.000 75.788,184.000 75.973 C 184.000 76.569,186.498 76.916,190.800 76.916 C 195.022 76.916,197.600 76.570,197.600 76.005 C 197.600 75.837,198.130 75.594,198.779 75.464 C 200.565 75.107,206.038 70.171,206.595 68.415 C 206.738 67.967,207.020 67.600,207.222 67.600 C 207.425 67.600,207.706 66.880,207.846 66.000 C 207.987 65.120,208.259 64.400,208.451 64.400 C 208.643 64.400,208.800 63.691,208.800 62.824 C 208.800 61.957,208.989 61.130,209.220 60.988 C 209.457 60.841,209.604 59.619,209.557 58.179 C 209.512 56.777,209.323 55.724,209.137 55.839 C 208.952 55.953,208.800 55.494,208.800 54.818 C 208.800 54.142,208.638 53.277,208.441 52.895 C 208.244 52.513,207.766 51.435,207.380 50.500 C 206.994 49.565,206.507 48.800,206.296 48.800 C 206.086 48.800,206.014 48.542,206.135 48.226 C 206.256 47.910,206.197 47.595,206.004 47.526 C 205.811 47.457,204.585 46.371,203.279 45.114 C 201.973 43.857,200.791 42.942,200.653 43.081 C 200.514 43.220,200.400 43.123,200.400 42.867 C 200.400 42.610,200.085 42.394,199.700 42.387 C 199.315 42.380,198.651 42.110,198.224 41.787 C 197.796 41.464,196.952 41.200,196.347 41.200 C 195.742 41.200,195.136 41.020,195.000 40.800 C 194.699 40.313,187.246 40.284,186.400 40.766 M242.000 50.372 C 241.010 50.742,239.750 51.238,239.200 51.475 C 238.650 51.712,238.037 51.809,237.838 51.691 C 237.639 51.573,237.597 51.671,237.744 51.909 C 237.894 52.152,237.614 52.468,237.106 52.628 C 236.608 52.785,235.505 53.606,234.656 54.453 C 233.807 55.300,232.924 55.877,232.695 55.735 C 232.465 55.593,232.385 55.652,232.518 55.867 C 232.650 56.081,232.141 56.964,231.387 57.828 C 230.633 58.693,230.012 59.715,230.008 60.100 C 230.003 60.485,229.834 60.800,229.632 60.800 C 229.279 60.800,228.566 63.078,228.724 63.700 C 228.766 63.865,228.620 64.000,228.400 64.000 C 228.180 64.000,228.000 64.821,228.000 65.824 C 228.000 66.827,227.836 67.546,227.636 67.422 C 226.850 66.936,227.980 76.540,228.806 77.366 C 229.023 77.583,229.200 78.084,229.200 78.480 C 229.200 78.876,229.360 79.200,229.557 79.200 C 229.753 79.200,230.029 79.662,230.171 80.228 C 230.313 80.793,230.918 81.762,231.515 82.381 C 232.112 83.000,233.084 84.022,233.676 84.653 C 235.247 86.326,236.920 87.514,238.134 87.819 C 238.720 87.966,239.200 88.203,239.200 88.346 C 239.200 89.713,253.572 90.589,254.860 89.300 C 255.135 89.025,255.759 88.800,256.247 88.800 C 256.734 88.800,257.197 88.610,257.274 88.378 C 257.351 88.146,257.741 87.909,258.139 87.850 C 258.538 87.792,258.986 87.546,259.136 87.304 C 259.285 87.062,259.656 86.805,259.959 86.732 C 260.693 86.557,264.400 82.792,264.400 82.223 C 264.400 81.978,264.753 81.522,265.185 81.211 C 265.617 80.899,266.081 80.140,266.217 79.522 C 266.353 78.905,266.595 78.400,266.755 78.400 C 268.123 78.400,268.930 66.099,267.713 63.800 C 267.480 63.360,266.783 61.920,266.163 60.600 C 265.543 59.280,264.803 58.056,264.518 57.880 C 264.233 57.704,264.000 57.371,264.000 57.141 C 264.000 56.910,263.466 56.222,262.814 55.613 C 262.162 55.004,261.757 54.363,261.914 54.188 C 262.071 54.014,262.002 53.984,261.761 54.122 C 261.519 54.260,260.979 54.054,260.561 53.666 C 260.142 53.277,259.530 52.835,259.200 52.682 C 258.870 52.530,258.330 52.239,258.000 52.036 C 256.756 51.270,254.449 50.400,253.663 50.400 C 253.214 50.400,252.736 50.220,252.600 50.000 C 252.181 49.321,244.050 49.607,242.000 50.372 M130.800 54.468 C 130.800 54.651,130.260 54.800,129.600 54.800 C 128.940 54.800,128.400 54.960,128.400 55.155 C 128.400 55.351,127.750 55.633,126.955 55.782 C 126.161 55.931,125.073 56.491,124.537 57.027 C 124.002 57.562,123.302 58.000,122.982 58.000 C 122.662 58.000,122.445 58.139,122.500 58.308 C 122.598 58.611,122.044 59.371,120.743 60.719 C 120.050 61.437,118.848 64.002,118.046 66.473 C 117.509 68.126,117.515 74.400,118.053 74.400 C 118.244 74.400,118.400 74.749,118.400 75.176 C 118.400 75.603,118.566 76.055,118.769 76.181 C 118.972 76.306,119.258 76.956,119.405 77.624 C 119.552 78.292,120.016 79.053,120.436 79.315 C 120.856 79.578,121.200 79.978,121.200 80.205 C 121.200 81.108,124.965 84.225,126.531 84.618 C 127.123 84.767,127.706 85.049,127.827 85.244 C 127.948 85.440,128.476 85.600,129.000 85.600 C 129.524 85.600,130.048 85.754,130.164 85.942 C 130.444 86.395,136.937 86.426,137.215 85.976 C 137.334 85.783,137.997 85.582,138.688 85.530 C 139.379 85.477,139.870 85.313,139.779 85.166 C 139.688 85.018,140.127 84.795,140.756 84.669 C 142.649 84.290,147.856 78.818,148.264 76.779 C 148.394 76.130,148.657 75.600,148.850 75.600 C 149.042 75.600,149.200 74.880,149.200 74.000 C 149.200 73.120,149.380 72.400,149.600 72.400 C 149.820 72.400,150.000 71.410,150.000 70.200 C 150.000 68.990,149.820 68.000,149.600 68.000 C 149.380 68.000,149.200 67.458,149.200 66.795 C 149.200 66.132,149.046 65.277,148.859 64.895 C 148.671 64.513,148.176 63.480,147.759 62.600 C 147.036 61.076,144.007 57.600,143.402 57.600 C 143.244 57.600,142.581 57.150,141.927 56.600 C 141.273 56.050,140.403 55.600,139.993 55.600 C 139.583 55.600,139.136 55.420,139.000 55.200 C 138.864 54.980,138.123 54.800,137.353 54.800 C 136.583 54.800,136.054 54.637,136.177 54.437 C 136.303 54.233,135.181 54.088,133.600 54.105 C 132.060 54.122,130.800 54.286,130.800 54.468 M291.811 79.983 C 291.669 80.212,291.023 80.400,290.376 80.400 C 289.729 80.400,289.200 80.580,289.200 80.800 C 289.200 81.020,288.867 81.200,288.460 81.200 C 288.052 81.200,286.882 81.645,285.860 82.189 C 284.837 82.733,284.000 83.074,284.000 82.949 C 284.000 82.823,282.470 84.260,280.600 86.143 C 278.730 88.025,277.200 89.843,277.200 90.183 C 277.200 90.522,277.062 90.800,276.894 90.800 C 276.495 90.800,275.200 93.798,275.200 94.723 C 275.200 95.117,274.975 95.665,274.700 95.940 C 274.063 96.577,274.003 107.437,274.629 108.839 C 274.865 109.368,275.540 110.793,276.129 112.006 C 276.718 113.220,277.200 114.345,277.200 114.506 C 277.200 115.459,283.642 121.600,284.641 121.600 C 284.949 121.600,285.200 121.766,285.200 121.968 C 285.200 122.171,285.740 122.455,286.400 122.600 C 287.060 122.745,287.600 123.029,287.600 123.232 C 287.600 123.434,288.061 123.600,288.624 123.600 C 289.187 123.600,289.558 123.744,289.449 123.920 C 288.892 124.822,303.190 124.881,304.000 123.981 C 304.320 123.624,307.079 122.400,307.560 122.400 C 307.802 122.400,308.000 122.220,308.000 122.000 C 308.000 121.780,308.255 121.600,308.567 121.600 C 308.878 121.600,309.193 121.465,309.267 121.300 C 309.340 121.135,310.263 120.306,311.318 119.458 C 313.216 117.933,316.400 114.023,316.400 113.217 C 316.400 112.988,316.547 112.800,316.727 112.800 C 317.754 112.800,319.726 102.956,319.188 100.517 C 319.004 99.683,318.896 98.426,318.948 97.725 C 319.000 97.024,318.898 96.540,318.721 96.649 C 318.545 96.758,318.400 96.397,318.400 95.847 C 318.400 95.297,318.243 94.750,318.052 94.632 C 317.700 94.415,317.039 92.080,317.156 91.470 C 317.191 91.289,317.035 91.255,316.810 91.394 C 316.584 91.533,316.400 91.367,316.400 91.024 C 316.400 90.681,316.220 90.400,316.000 90.400 C 315.780 90.400,315.600 90.170,315.600 89.888 C 315.600 89.206,311.316 84.673,309.800 83.750 C 309.140 83.348,308.454 82.786,308.275 82.501 C 308.097 82.216,307.782 82.088,307.575 82.215 C 307.369 82.343,307.200 82.272,307.200 82.059 C 307.200 81.845,306.480 81.549,305.600 81.400 C 304.720 81.251,304.000 80.966,304.000 80.765 C 304.000 80.564,303.539 80.400,302.976 80.400 C 302.413 80.400,302.052 80.239,302.174 80.042 C 302.300 79.838,300.158 79.658,297.232 79.624 C 294.016 79.588,291.971 79.723,291.811 79.983 M82.400 89.200 C 82.400 89.420,81.770 89.600,81.000 89.600 C 80.230 89.600,79.600 89.777,79.600 89.992 C 79.600 90.208,79.112 90.507,78.516 90.657 C 76.045 91.277,72.000 96.816,72.000 99.578 C 72.000 100.250,71.820 100.800,71.600 100.800 C 71.380 100.800,71.200 101.610,71.200 102.600 C 71.200 103.590,71.355 104.400,71.544 104.400 C 71.733 104.400,71.995 105.432,72.125 106.694 C 72.255 107.955,72.550 109.050,72.781 109.127 C 73.011 109.204,73.200 109.522,73.200 109.833 C 73.200 110.145,73.368 110.400,73.573 110.400 C 73.778 110.400,74.071 110.795,74.225 111.278 C 74.518 112.203,75.921 113.564,76.604 113.587 C 76.826 113.594,77.231 113.958,77.504 114.395 C 77.802 114.873,78.640 115.293,79.600 115.446 C 80.480 115.587,81.200 115.859,81.200 116.051 C 81.200 116.243,83.090 116.400,85.400 116.400 C 87.710 116.400,89.600 116.240,89.600 116.045 C 89.600 115.849,90.250 115.567,91.045 115.418 C 91.839 115.269,92.894 114.754,93.390 114.273 C 93.885 113.793,94.674 113.135,95.145 112.812 C 95.615 112.488,96.000 111.993,96.000 111.712 C 96.000 111.430,96.177 111.200,96.392 111.200 C 96.608 111.200,96.898 110.750,97.036 110.200 C 97.174 109.650,97.418 109.200,97.579 109.200 C 98.761 109.200,99.616 98.472,98.465 98.088 C 98.209 98.003,98.000 97.672,98.000 97.353 C 98.000 95.658,93.826 91.001,91.935 90.586 C 91.311 90.449,90.800 90.171,90.800 89.968 C 90.800 89.766,90.181 89.600,89.424 89.600 C 88.667 89.600,87.936 89.420,87.800 89.200 C 87.664 88.980,86.393 88.800,84.976 88.800 C 83.525 88.800,82.400 88.975,82.400 89.200 M162.400 101.166 C 160.307 101.623,159.200 102.055,159.200 102.415 C 159.200 102.592,158.660 102.855,158.000 103.000 C 157.340 103.145,156.800 103.429,156.800 103.632 C 156.800 103.834,156.613 104.000,156.384 104.000 C 155.731 104.000,152.787 107.278,152.324 108.520 C 152.095 109.137,151.811 109.544,151.693 109.426 C 151.575 109.309,151.200 109.704,150.859 110.306 C 150.042 111.746,149.904 123.234,150.700 123.500 C 150.975 123.592,151.200 124.112,151.200 124.657 C 151.200 125.215,151.374 125.539,151.600 125.400 C 151.820 125.264,152.000 125.411,152.000 125.728 C 152.000 126.485,155.964 130.800,156.660 130.800 C 156.957 130.800,157.200 130.977,157.200 131.192 C 157.200 131.408,157.650 131.698,158.200 131.836 C 158.750 131.974,159.200 132.247,159.200 132.443 C 159.200 132.640,159.650 132.800,160.200 132.800 C 160.750 132.800,161.200 132.980,161.200 133.200 C 161.200 133.800,170.398 133.713,171.717 133.100 C 172.309 132.825,172.795 132.479,172.797 132.332 C 172.799 132.184,173.349 131.943,174.019 131.796 C 174.690 131.649,175.453 131.184,175.715 130.764 C 175.978 130.344,176.376 130.000,176.600 130.000 C 177.196 130.000,179.200 128.052,179.200 127.472 C 179.200 127.200,179.559 126.718,179.998 126.401 C 180.437 126.085,180.907 125.237,181.042 124.516 C 181.177 123.796,181.411 123.283,181.561 123.376 C 181.711 123.469,181.877 122.979,181.930 122.288 C 181.982 121.597,182.167 120.934,182.340 120.816 C 182.785 120.510,182.831 114.266,182.390 113.994 C 182.190 113.870,181.982 113.203,181.930 112.512 C 181.877 111.821,181.713 111.330,181.566 111.421 C 181.418 111.512,181.198 111.095,181.076 110.494 C 180.954 109.892,180.501 109.022,180.068 108.561 C 179.636 108.099,179.219 107.442,179.141 107.101 C 178.957 106.290,175.259 103.240,174.100 102.944 C 173.605 102.817,173.200 102.553,173.200 102.357 C 173.200 102.160,172.855 102.000,172.433 102.000 C 172.012 102.000,171.606 101.818,171.532 101.596 C 171.363 101.088,164.282 100.755,162.400 101.166 M206.400 108.797 C 206.070 108.968,205.260 109.327,204.600 109.596 C 202.907 110.285,200.672 111.348,200.200 111.689 C 198.383 113.000,195.200 116.736,195.200 117.558 C 195.200 117.801,195.022 118.000,194.805 118.000 C 194.587 118.000,194.294 118.724,194.152 119.609 C 194.011 120.494,193.739 121.314,193.547 121.432 C 193.094 121.713,193.094 130.287,193.547 130.568 C 193.739 130.686,194.011 131.506,194.152 132.391 C 194.294 133.276,194.568 134.000,194.761 134.000 C 194.955 134.000,195.226 134.450,195.364 135.000 C 195.502 135.550,195.792 136.000,196.008 136.000 C 196.223 136.000,196.400 136.187,196.400 136.416 C 196.400 136.968,199.419 140.000,199.969 140.000 C 200.206 140.000,200.400 140.177,200.400 140.392 C 200.400 140.608,200.850 140.898,201.400 141.036 C 201.950 141.174,202.400 141.426,202.400 141.597 C 202.400 141.767,202.805 142.036,203.300 142.194 C 203.795 142.352,204.560 142.597,205.000 142.738 C 209.270 144.105,220.180 142.082,221.072 139.757 C 221.189 139.451,221.530 139.200,221.829 139.200 C 222.127 139.200,222.567 138.835,222.806 138.389 C 223.045 137.943,223.411 137.683,223.620 137.812 C 223.829 137.942,224.000 137.779,224.000 137.452 C 224.000 137.125,224.225 136.616,224.500 136.321 C 225.301 135.463,226.400 133.332,226.400 132.638 C 226.400 132.287,226.580 132.000,226.800 132.000 C 227.020 132.000,227.200 131.460,227.200 130.800 C 227.200 130.140,227.392 129.600,227.627 129.600 C 227.906 129.600,228.018 128.351,227.951 126.000 C 227.893 124.020,227.701 122.400,227.523 122.400 C 227.346 122.400,227.200 121.871,227.200 121.224 C 227.200 120.577,227.034 119.945,226.831 119.819 C 226.628 119.694,226.343 119.053,226.199 118.395 C 226.055 117.738,225.771 117.200,225.568 117.200 C 225.366 117.200,225.200 116.966,225.200 116.679 C 225.200 116.074,221.317 112.000,220.741 112.000 C 220.527 112.000,220.464 111.820,220.600 111.600 C 220.736 111.380,220.477 111.200,220.024 111.200 C 219.571 111.200,219.200 111.034,219.200 110.832 C 219.200 110.629,218.660 110.345,218.000 110.200 C 217.340 110.055,216.800 109.771,216.800 109.568 C 216.800 109.366,216.170 109.200,215.400 109.200 C 214.630 109.200,214.000 109.036,214.000 108.835 C 214.000 108.393,207.248 108.360,206.400 108.797 M120.600 111.600 C 120.464 111.820,119.662 112.000,118.817 112.000 C 116.104 112.000,109.236 116.644,109.187 118.511 C 109.180 118.780,108.910 119.349,108.587 119.776 C 108.264 120.204,108.000 120.958,108.000 121.453 C 108.000 121.948,107.820 122.464,107.600 122.600 C 107.380 122.736,107.200 124.356,107.200 126.200 C 107.200 128.044,107.380 129.664,107.600 129.800 C 107.820 129.936,108.000 130.414,108.000 130.863 C 108.000 133.712,113.938 140.000,116.628 140.000 C 116.906 140.000,117.204 140.212,117.291 140.472 C 117.399 140.798,118.858 140.944,122.000 140.944 C 125.142 140.944,126.601 140.798,126.709 140.472 C 126.796 140.212,127.094 140.000,127.372 140.000 C 130.076 140.000,136.000 133.710,136.000 130.840 C 136.000 130.378,136.165 130.000,136.367 130.000 C 136.568 130.000,136.733 128.290,136.733 126.200 C 136.733 124.110,136.568 122.400,136.367 122.400 C 136.165 122.400,136.000 122.023,136.000 121.562 C 136.000 120.780,135.120 118.895,134.200 117.708 C 133.226 116.451,130.672 114.000,130.336 114.000 C 130.133 114.000,129.602 113.660,129.156 113.244 C 128.311 112.458,126.699 112.000,124.774 112.000 C 124.154 112.000,123.536 111.820,123.400 111.600 C 123.264 111.380,122.634 111.200,122.000 111.200 C 121.366 111.200,120.736 111.380,120.600 111.600 M323.200 131.010 C 320.235 132.040,318.400 132.901,318.400 133.261 C 318.400 133.447,318.158 133.600,317.861 133.600 C 316.916 133.600,312.565 137.649,312.169 138.897 C 312.044 139.290,311.775 139.508,311.571 139.382 C 311.367 139.256,311.200 139.523,311.200 139.976 C 311.200 140.429,311.028 140.800,310.818 140.800 C 310.608 140.800,310.318 141.428,310.174 142.196 C 310.030 142.965,309.790 143.518,309.641 143.425 C 309.492 143.333,309.331 143.730,309.283 144.306 C 309.235 144.883,309.062 145.455,308.898 145.578 C 307.941 146.292,308.672 158.000,309.673 158.000 C 309.853 158.000,310.000 158.264,310.000 158.588 C 310.000 159.388,311.423 162.059,312.418 163.127 C 312.865 163.607,313.107 164.000,312.954 164.000 C 312.802 164.000,313.326 164.630,314.119 165.400 C 314.912 166.170,315.657 166.800,315.776 166.800 C 315.894 166.800,316.359 167.115,316.808 167.500 C 317.258 167.885,317.714 168.151,317.821 168.092 C 317.928 168.032,318.406 168.347,318.883 168.792 C 319.360 169.236,320.005 169.600,320.315 169.600 C 320.625 169.600,321.446 169.853,322.140 170.162 C 324.429 171.182,332.681 171.979,332.156 171.129 C 332.044 170.948,332.458 170.800,333.076 170.800 C 334.461 170.799,337.772 169.573,338.827 168.669 C 339.257 168.301,339.760 168.000,339.943 168.000 C 340.127 168.000,340.710 167.620,341.239 167.155 C 341.767 166.690,342.790 165.855,343.511 165.299 C 344.232 164.743,344.738 164.204,344.635 164.102 C 344.532 163.999,344.888 163.476,345.424 162.939 C 345.961 162.403,346.400 161.702,346.400 161.382 C 346.400 161.062,346.538 160.800,346.706 160.800 C 347.160 160.800,348.400 157.742,348.400 156.621 C 348.400 156.085,348.580 155.536,348.800 155.400 C 349.294 155.095,349.337 147.060,348.850 146.095 C 348.657 145.713,348.178 144.365,347.785 143.100 C 347.392 141.835,346.919 140.800,346.735 140.800 C 346.551 140.800,346.400 140.612,346.400 140.383 C 346.400 139.657,343.252 135.763,342.219 135.210 C 341.673 134.918,341.340 134.482,341.478 134.240 C 341.616 133.998,341.599 133.916,341.441 134.057 C 341.283 134.198,340.139 133.703,338.900 132.957 C 337.661 132.211,336.357 131.600,336.004 131.600 C 335.650 131.600,335.155 131.395,334.904 131.144 C 334.132 130.372,325.327 130.271,323.200 131.010 M245.000 132.416 C 244.560 132.596,243.615 132.756,242.900 132.772 C 242.185 132.787,241.600 132.980,241.600 133.200 C 241.600 133.420,241.163 133.600,240.629 133.600 C 240.094 133.600,239.387 133.870,239.057 134.200 C 238.727 134.530,238.284 134.800,238.071 134.800 C 237.859 134.800,237.572 135.096,237.433 135.457 C 237.295 135.819,237.082 136.016,236.961 135.895 C 235.858 134.791,230.513 142.597,230.105 145.909 C 229.989 146.849,229.738 147.715,229.547 147.833 C 229.095 148.112,229.093 154.400,229.544 154.400 C 229.734 154.400,229.999 155.331,230.134 156.470 C 230.269 157.608,230.549 158.645,230.757 158.774 C 230.966 158.902,231.195 159.261,231.268 159.570 C 231.341 159.880,231.670 160.432,232.000 160.797 C 233.128 162.044,234.400 163.773,234.400 164.060 C 234.400 164.217,234.763 164.461,235.206 164.602 C 235.649 164.743,235.920 165.006,235.808 165.188 C 235.695 165.369,236.318 165.871,237.191 166.303 C 238.064 166.735,238.663 167.204,238.522 167.344 C 238.382 167.485,238.522 167.613,238.833 167.630 C 240.196 167.701,241.410 168.053,241.533 168.412 C 241.607 168.625,242.282 168.800,243.033 168.800 C 243.785 168.800,244.400 168.980,244.400 169.200 C 244.400 169.437,245.867 169.600,248.000 169.600 C 250.133 169.600,251.600 169.437,251.600 169.200 C 251.600 168.980,252.140 168.800,252.800 168.800 C 253.460 168.800,254.000 168.620,254.000 168.400 C 254.000 168.180,254.369 168.000,254.821 168.000 C 256.654 168.000,263.200 162.975,263.200 161.567 C 263.200 161.339,263.380 161.264,263.600 161.400 C 263.820 161.536,264.000 161.311,264.000 160.900 C 264.000 160.489,264.264 159.804,264.587 159.376 C 264.910 158.949,265.180 158.300,265.187 157.933 C 265.194 157.567,265.425 157.192,265.700 157.100 C 266.070 156.977,266.200 155.391,266.200 151.000 C 266.200 146.609,266.070 145.024,265.700 144.900 C 265.425 144.808,265.200 144.493,265.200 144.199 C 265.200 143.619,264.104 141.451,263.297 140.434 C 263.020 140.085,262.784 139.676,262.773 139.524 C 262.744 139.120,259.563 136.000,259.182 136.000 C 259.003 136.000,258.619 135.775,258.329 135.499 C 257.447 134.663,253.731 133.016,251.800 132.605 C 249.795 132.178,245.849 132.068,245.000 132.416 M79.712 139.531 C 78.783 139.908,77.802 140.438,77.532 140.708 C 77.261 140.979,76.851 141.205,76.620 141.211 C 76.389 141.217,75.750 141.858,75.200 142.635 C 74.650 143.412,73.975 144.294,73.700 144.595 C 73.425 144.896,73.200 145.321,73.200 145.538 C 73.200 145.755,72.975 146.008,72.700 146.100 C 71.930 146.357,72.013 155.517,72.800 157.039 C 73.684 158.752,77.375 162.328,78.566 162.627 C 79.135 162.770,79.600 163.047,79.600 163.243 C 79.600 163.440,80.140 163.600,80.800 163.600 C 81.460 163.600,82.000 163.780,82.000 164.000 C 82.000 164.222,83.067 164.400,84.400 164.400 C 85.733 164.400,86.800 164.222,86.800 164.000 C 86.800 163.780,87.430 163.600,88.200 163.600 C 88.970 163.600,89.600 163.440,89.600 163.243 C 89.600 163.047,90.013 162.783,90.518 162.656 C 91.775 162.341,95.454 158.829,95.815 157.600 C 95.976 157.050,96.299 156.477,96.533 156.327 C 97.127 155.947,97.143 147.263,96.550 146.886 C 96.303 146.729,95.981 146.050,95.836 145.378 C 95.690 144.705,95.217 143.901,94.785 143.589 C 94.353 143.278,94.000 142.793,94.000 142.512 C 94.000 142.230,93.812 142.000,93.583 142.000 C 93.353 142.000,92.702 141.571,92.136 141.046 C 89.820 138.898,83.243 138.096,79.712 139.531 M49.600 139.600 C 49.600 139.820,49.150 140.000,48.600 140.000 C 48.050 140.000,47.600 140.168,47.600 140.373 C 47.600 140.578,47.253 140.856,46.829 140.991 C 45.994 141.256,42.800 144.290,42.800 144.818 C 42.800 144.997,42.485 145.458,42.100 145.843 C 41.260 146.682,41.039 155.795,41.846 156.313 C 42.091 156.471,42.427 157.050,42.593 157.600 C 42.914 158.669,45.693 161.600,46.385 161.600 C 46.613 161.600,46.800 161.774,46.800 161.986 C 46.800 162.199,47.700 162.492,48.800 162.638 C 49.900 162.784,50.800 163.060,50.800 163.252 C 50.800 163.443,51.880 163.600,53.200 163.600 C 54.520 163.600,55.600 163.443,55.600 163.251 C 55.600 163.059,56.282 162.793,57.115 162.660 C 57.948 162.527,59.021 162.054,59.498 161.609 C 59.976 161.164,60.554 160.800,60.783 160.800 C 61.012 160.800,61.200 160.609,61.200 160.376 C 61.200 160.143,61.380 160.064,61.600 160.200 C 61.820 160.336,62.000 160.244,62.000 159.995 C 62.000 159.746,62.225 159.292,62.500 158.985 C 63.907 157.416,64.123 156.984,64.306 155.359 C 64.415 154.392,64.661 153.600,64.852 153.600 C 65.321 153.600,65.297 149.767,64.822 148.895 C 64.614 148.513,64.336 147.525,64.204 146.700 C 64.072 145.875,63.792 145.200,63.582 145.200 C 63.372 145.200,63.200 144.960,63.200 144.666 C 63.200 143.683,59.127 140.525,56.802 139.706 C 55.112 139.111,49.600 139.029,49.600 139.600 M142.000 155.979 C 142.000 156.211,141.550 156.400,141.000 156.400 C 140.450 156.400,140.000 156.560,140.000 156.757 C 140.000 156.953,139.536 157.230,138.969 157.372 C 137.871 157.647,134.800 160.445,134.800 161.169 C 134.800 161.406,134.628 161.600,134.418 161.600 C 134.208 161.600,133.918 162.230,133.774 163.000 C 133.629 163.770,133.342 164.400,133.136 164.400 C 132.923 164.400,132.790 166.205,132.828 168.594 C 132.865 170.901,133.034 172.702,133.204 172.598 C 133.373 172.493,133.631 173.039,133.776 173.812 C 133.921 174.585,134.391 175.437,134.820 175.705 C 135.249 175.973,135.600 176.413,135.600 176.682 C 135.600 176.951,136.005 177.384,136.500 177.644 C 136.995 177.904,137.544 178.361,137.720 178.658 C 137.896 178.956,138.301 179.200,138.620 179.200 C 138.939 179.200,139.200 179.380,139.200 179.600 C 139.200 179.820,139.560 180.000,140.000 180.000 C 140.440 180.000,140.800 180.180,140.800 180.400 C 140.800 181.499,150.243 180.731,151.200 179.554 C 151.310 179.419,151.796 179.184,152.280 179.033 C 152.763 178.883,153.267 178.417,153.400 178.000 C 153.533 177.583,153.992 177.130,154.420 176.994 C 154.849 176.857,155.200 176.591,155.200 176.402 C 155.200 176.212,155.425 175.819,155.700 175.529 C 157.047 174.105,157.400 172.625,157.400 168.400 C 157.400 164.175,157.047 162.695,155.700 161.271 C 155.425 160.981,155.200 160.486,155.200 160.171 C 155.200 159.857,155.039 159.600,154.842 159.600 C 154.646 159.600,153.907 159.060,153.200 158.400 C 152.493 157.740,151.574 157.200,151.158 157.200 C 150.741 157.200,150.400 157.020,150.400 156.800 C 150.400 156.580,149.961 156.400,149.424 156.400 C 148.887 156.400,148.352 156.246,148.236 156.059 C 147.920 155.547,142.000 155.471,142.000 155.979 M174.632 161.947 C 174.514 162.139,173.694 162.411,172.809 162.552 C 171.841 162.707,171.003 163.126,170.704 163.605 C 170.431 164.042,169.981 164.400,169.704 164.400 C 169.104 164.400,167.600 165.830,167.600 166.400 C 167.600 166.620,167.423 166.800,167.208 166.800 C 166.992 166.800,166.702 167.250,166.564 167.800 C 166.426 168.350,166.153 168.800,165.957 168.800 C 165.760 168.800,165.600 169.149,165.600 169.576 C 165.600 170.003,165.420 170.464,165.200 170.600 C 164.977 170.738,164.800 172.596,164.800 174.800 C 164.800 177.004,164.977 178.862,165.200 179.000 C 165.420 179.136,165.600 179.582,165.600 179.990 C 165.600 180.399,165.735 180.793,165.900 180.867 C 166.065 180.940,166.533 181.657,166.941 182.459 C 167.348 183.262,168.293 184.247,169.041 184.650 C 169.788 185.053,170.400 185.480,170.400 185.600 C 170.400 185.720,171.075 186.149,171.900 186.553 C 172.725 186.958,173.713 187.449,174.095 187.644 C 175.062 188.140,182.000 188.101,182.000 187.600 C 182.000 187.380,182.450 187.200,183.000 187.200 C 183.550 187.200,184.000 187.040,184.000 186.843 C 184.000 186.647,184.438 186.377,184.973 186.242 C 185.509 186.108,186.061 185.639,186.200 185.199 C 186.340 184.760,186.614 184.400,186.811 184.400 C 187.333 184.400,189.200 182.293,189.200 181.704 C 189.200 181.427,189.378 181.200,189.595 181.200 C 189.813 181.200,190.106 180.480,190.246 179.600 C 190.387 178.720,190.659 178.000,190.851 178.000 C 191.043 178.000,191.200 176.560,191.200 174.800 C 191.200 173.040,191.043 171.600,190.851 171.600 C 190.659 171.600,190.387 170.880,190.246 170.000 C 190.106 169.120,189.813 168.400,189.595 168.400 C 189.378 168.400,189.200 168.135,189.200 167.811 C 189.200 167.196,185.826 163.600,185.249 163.600 C 185.068 163.600,184.073 163.150,183.038 162.600 C 181.103 161.571,175.151 161.109,174.632 161.947 M108.800 163.950 C 108.800 164.143,108.237 164.413,107.548 164.550 C 106.099 164.840,102.000 168.919,102.000 170.072 C 102.000 170.472,101.820 170.800,101.600 170.800 C 101.360 170.800,101.200 172.392,101.200 174.776 C 101.200 176.996,101.377 178.862,101.600 179.000 C 101.820 179.136,102.000 179.597,102.000 180.024 C 102.000 180.451,102.180 180.800,102.400 180.800 C 102.620 180.800,102.800 181.030,102.800 181.312 C 102.800 181.921,105.342 184.400,105.966 184.400 C 106.204 184.400,106.400 184.580,106.400 184.800 C 106.400 185.020,106.655 185.200,106.967 185.200 C 107.278 185.200,107.608 185.425,107.700 185.700 C 108.039 186.718,116.988 186.367,117.913 185.300 C 118.343 184.805,118.873 184.400,119.091 184.400 C 119.909 184.400,122.421 181.597,122.656 180.421 C 122.790 179.750,123.058 179.200,123.250 179.200 C 123.442 179.200,123.600 177.310,123.600 175.000 C 123.600 172.690,123.440 170.800,123.243 170.800 C 123.047 170.800,122.766 170.318,122.618 169.730 C 122.266 168.326,118.560 164.812,117.132 164.526 C 116.516 164.403,116.111 164.145,116.230 163.951 C 116.350 163.758,114.727 163.600,112.624 163.600 C 110.521 163.600,108.800 163.758,108.800 163.950 M270.000 171.144 C 270.000 171.334,269.114 171.594,268.031 171.722 C 266.107 171.950,264.785 172.491,263.687 173.500 C 263.388 173.775,262.976 174.000,262.771 174.000 C 261.985 174.000,258.062 178.408,257.804 179.581 C 257.657 180.252,257.371 180.800,257.168 180.800 C 256.966 180.800,256.800 181.055,256.800 181.367 C 256.800 181.678,256.583 182.006,256.319 182.094 C 255.088 182.504,255.964 196.400,257.221 196.400 C 257.382 196.400,257.626 196.850,257.764 197.400 C 257.902 197.950,258.192 198.400,258.408 198.400 C 258.623 198.400,258.800 198.632,258.800 198.916 C 258.800 199.440,261.424 202.049,262.443 202.538 C 262.749 202.685,263.720 203.246,264.600 203.785 C 265.480 204.324,266.605 204.773,267.100 204.783 C 267.595 204.792,268.000 204.980,268.000 205.200 C 268.000 205.444,269.867 205.600,272.800 205.600 C 275.440 205.600,277.600 205.443,277.600 205.251 C 277.600 205.059,278.320 204.787,279.200 204.646 C 280.080 204.506,280.800 204.257,280.800 204.093 C 280.800 203.929,281.295 203.576,281.900 203.307 C 283.225 202.720,286.800 199.502,286.800 198.897 C 286.800 198.660,286.942 198.407,287.116 198.333 C 289.274 197.424,291.248 182.749,289.300 182.100 C 289.025 182.008,288.800 181.678,288.800 181.367 C 288.800 181.055,288.640 180.800,288.443 180.800 C 288.247 180.800,287.962 180.305,287.811 179.700 C 287.659 179.095,287.507 178.510,287.473 178.400 C 286.886 176.484,279.323 171.600,276.944 171.600 C 276.205 171.600,275.600 171.420,275.600 171.200 C 275.600 170.971,274.400 170.800,272.800 170.800 C 271.260 170.800,270.000 170.955,270.000 171.144 M56.000 178.400 C 56.000 178.620,55.653 178.800,55.229 178.800 C 54.804 178.800,54.187 179.070,53.857 179.400 C 53.527 179.730,53.156 180.000,53.032 180.000 C 52.537 180.000,50.800 181.778,50.800 182.285 C 50.800 182.582,50.530 182.929,50.200 183.055 C 49.870 183.182,49.600 183.626,49.600 184.043 C 49.600 184.459,49.420 184.800,49.200 184.800 C 48.612 184.800,48.697 192.018,49.300 193.317 C 49.575 193.909,49.935 194.395,50.100 194.397 C 50.265 194.399,50.400 194.657,50.400 194.972 C 50.400 198.761,61.217 201.331,65.407 198.538 C 67.283 197.287,68.400 196.197,68.400 195.617 C 68.400 195.388,68.565 195.200,68.767 195.200 C 70.215 195.200,71.108 184.569,69.700 184.100 C 69.425 184.008,69.200 183.678,69.200 183.367 C 69.200 183.055,69.050 182.800,68.868 182.800 C 68.685 182.800,68.294 182.350,68.000 181.800 C 67.706 181.250,67.244 180.800,66.975 180.800 C 66.706 180.800,66.388 180.546,66.269 180.235 C 66.150 179.925,65.410 179.439,64.626 179.155 C 63.842 178.871,63.200 178.495,63.200 178.320 C 63.200 178.144,61.580 178.000,59.600 178.000 C 57.467 178.000,56.000 178.163,56.000 178.400 M201.800 179.156 C 201.360 179.335,200.595 179.619,200.100 179.787 C 199.605 179.956,199.200 180.252,199.200 180.447 C 199.200 180.641,198.943 180.800,198.629 180.800 C 197.845 180.800,194.580 183.992,194.230 185.100 C 194.074 185.595,193.778 186.000,193.573 186.000 C 193.368 186.000,193.200 186.435,193.200 186.967 C 193.200 187.498,193.000 188.000,192.755 188.082 C 192.464 188.179,192.327 189.606,192.359 192.215 C 192.420 197.209,192.457 197.600,192.867 197.600 C 193.050 197.600,193.200 197.960,193.200 198.400 C 193.200 198.840,193.380 199.200,193.600 199.200 C 193.820 199.200,194.000 199.476,194.000 199.813 C 194.000 200.149,194.270 200.529,194.600 200.655 C 194.930 200.782,195.200 201.214,195.200 201.616 C 195.200 202.017,195.563 202.461,196.006 202.602 C 196.449 202.743,196.708 203.025,196.582 203.229 C 196.456 203.433,196.633 203.600,196.976 203.600 C 197.319 203.600,197.600 203.777,197.600 203.992 C 197.600 204.208,198.050 204.498,198.600 204.636 C 199.150 204.774,199.600 205.047,199.600 205.243 C 199.600 205.440,199.945 205.600,200.367 205.600 C 200.788 205.600,201.204 205.811,201.290 206.070 C 201.659 207.178,209.978 206.667,212.400 205.387 C 214.780 204.129,218.000 201.041,218.000 200.017 C 218.000 199.788,218.138 199.600,218.306 199.600 C 219.515 199.600,220.628 190.467,219.659 188.495 C 219.471 188.113,218.993 187.125,218.596 186.300 C 218.199 185.475,217.722 184.800,217.537 184.800 C 217.352 184.800,217.200 184.512,217.200 184.160 C 217.200 183.546,215.354 181.557,214.306 181.042 C 214.028 180.905,213.170 180.406,212.400 179.934 C 210.894 179.009,203.498 178.467,201.800 179.156 M81.200 183.600 C 81.200 183.820,80.840 184.000,80.400 184.000 C 79.960 184.000,79.600 184.160,79.600 184.357 C 79.600 184.553,79.162 184.823,78.627 184.958 C 78.091 185.092,77.535 185.575,77.390 186.031 C 77.245 186.487,77.022 186.755,76.894 186.627 C 76.567 186.300,75.206 188.451,75.203 189.300 C 75.201 189.685,75.020 190.000,74.800 190.000 C 74.565 190.000,74.400 191.400,74.400 193.400 C 74.400 195.270,74.558 196.800,74.750 196.800 C 74.942 196.800,75.200 197.295,75.323 197.900 C 75.445 198.505,75.917 199.397,76.373 199.883 C 76.828 200.369,77.200 200.954,77.200 201.183 C 77.200 201.412,77.470 201.600,77.800 201.600 C 78.130 201.600,78.400 201.777,78.400 201.992 C 78.400 202.208,78.850 202.498,79.400 202.636 C 79.950 202.774,80.400 203.047,80.400 203.243 C 80.400 203.440,81.030 203.600,81.800 203.600 C 82.570 203.600,83.200 203.780,83.200 204.000 C 83.200 204.220,83.819 204.400,84.576 204.400 C 85.333 204.400,86.064 204.220,86.200 204.000 C 86.336 203.780,86.977 203.600,87.624 203.600 C 88.271 203.600,88.800 203.428,88.800 203.218 C 88.800 203.008,89.424 202.719,90.186 202.576 C 91.028 202.418,91.665 202.026,91.807 201.579 C 91.936 201.173,92.385 200.732,92.807 200.598 C 93.283 200.447,93.670 199.835,93.831 198.977 C 93.973 198.220,94.249 197.600,94.445 197.600 C 94.640 197.600,94.800 197.161,94.800 196.624 C 94.800 196.087,94.944 195.558,95.120 195.449 C 95.608 195.148,95.696 192.000,95.216 192.000 C 94.987 192.000,94.800 191.370,94.800 190.600 C 94.800 189.830,94.620 189.200,94.400 189.200 C 94.180 189.200,94.000 188.958,94.000 188.661 C 94.000 188.365,93.624 187.690,93.165 187.161 C 92.706 186.633,92.211 186.020,92.065 185.800 C 91.703 185.254,89.267 184.000,88.568 184.000 C 88.255 184.000,88.000 183.820,88.000 183.600 C 88.000 183.365,86.600 183.200,84.600 183.200 C 82.600 183.200,81.200 183.365,81.200 183.600 M338.235 189.543 C 338.119 189.731,337.050 189.986,335.861 190.109 C 333.933 190.308,332.171 190.944,331.600 191.646 C 331.490 191.781,331.040 192.005,330.600 192.144 C 330.160 192.282,329.260 192.865,328.600 193.439 C 327.940 194.013,327.040 194.779,326.600 195.141 C 325.680 195.899,323.600 198.984,323.600 199.591 C 323.600 199.816,323.409 200.000,323.176 200.000 C 322.943 200.000,322.856 200.168,322.983 200.372 C 323.109 200.577,323.030 200.858,322.807 200.996 C 322.583 201.134,322.400 201.777,322.400 202.424 C 322.400 203.071,322.220 203.600,322.000 203.600 C 321.759 203.600,321.600 205.267,321.600 207.800 C 321.600 210.333,321.759 212.000,322.000 212.000 C 322.220 212.000,322.400 212.444,322.400 212.986 C 322.400 214.019,323.583 216.903,324.100 217.133 C 324.265 217.207,324.400 217.479,324.400 217.737 C 324.400 217.996,324.857 218.701,325.416 219.304 C 325.975 219.907,326.298 220.400,326.135 220.400 C 325.971 220.400,326.250 220.715,326.755 221.100 C 327.260 221.485,328.242 222.305,328.937 222.923 C 329.631 223.540,330.692 224.147,331.294 224.271 C 331.895 224.396,332.289 224.655,332.170 224.849 C 332.050 225.042,332.424 225.200,333.000 225.200 C 333.576 225.200,333.959 225.343,333.851 225.517 C 333.079 226.767,344.886 226.356,347.400 225.046 C 348.500 224.472,349.559 224.003,349.753 224.002 C 349.947 224.001,350.442 223.612,350.853 223.139 C 351.264 222.665,351.600 222.387,351.600 222.521 C 351.600 222.654,352.046 222.318,352.591 221.773 C 353.136 221.228,353.582 220.692,353.582 220.582 C 353.582 220.472,354.036 219.928,354.591 219.373 C 355.146 218.818,355.600 218.117,355.600 217.815 C 355.600 217.513,355.735 217.207,355.900 217.133 C 356.490 216.871,357.600 214.458,357.600 213.438 C 357.600 212.867,357.780 212.400,358.000 212.400 C 358.497 212.400,358.548 203.739,358.053 203.432 C 357.861 203.314,357.589 202.494,357.448 201.609 C 357.306 200.724,357.013 200.000,356.795 200.000 C 356.578 200.000,356.400 199.722,356.400 199.383 C 356.400 198.647,356.070 198.212,353.200 195.157 C 351.990 193.869,350.460 192.597,349.800 192.330 C 349.140 192.064,348.510 191.733,348.400 191.595 C 347.959 191.043,344.700 190.000,343.416 190.000 C 342.663 190.000,341.936 189.820,341.800 189.600 C 341.499 189.112,338.531 189.065,338.235 189.543 M122.300 204.676 C 121.915 204.776,121.600 205.025,121.600 205.229 C 121.600 205.433,121.422 205.600,121.205 205.600 C 120.569 205.600,119.200 206.927,119.200 207.542 C 119.200 207.852,118.840 208.419,118.400 208.800 C 116.839 210.154,116.855 216.649,118.422 218.332 C 118.850 218.791,119.200 219.262,119.200 219.379 C 119.200 219.842,120.609 221.200,121.089 221.200 C 121.370 221.200,121.601 221.335,121.603 221.500 C 121.605 221.665,122.091 222.025,122.683 222.300 C 123.970 222.898,130.000 222.980,130.000 222.400 C 130.000 222.180,130.360 222.000,130.800 222.000 C 131.240 222.000,131.600 221.820,131.600 221.600 C 131.600 221.380,131.861 221.200,132.180 221.200 C 132.498 221.200,133.262 220.525,133.877 219.700 C 134.492 218.875,135.175 218.073,135.394 217.917 C 135.613 217.761,135.859 216.170,135.940 214.380 C 136.144 209.891,134.992 207.416,131.611 205.083 C 130.655 204.423,124.327 204.146,122.300 204.676 M146.632 207.948 C 146.514 208.140,145.868 208.406,145.198 208.540 C 144.528 208.674,143.543 209.193,143.009 209.692 C 142.475 210.191,141.805 210.816,141.519 211.081 C 140.501 212.024,140.000 212.775,140.000 213.360 C 140.000 213.686,139.820 214.064,139.600 214.200 C 138.626 214.802,139.320 222.304,140.432 223.200 C 140.569 223.310,140.895 223.808,141.157 224.306 C 141.688 225.314,144.448 227.200,145.392 227.200 C 145.726 227.200,146.000 227.380,146.000 227.600 C 146.000 227.833,147.333 228.000,149.200 228.000 C 151.067 228.000,152.400 227.833,152.400 227.600 C 152.400 227.380,152.850 227.200,153.400 227.200 C 153.950 227.200,154.400 227.061,154.400 226.891 C 154.400 226.721,155.034 226.240,155.809 225.823 C 156.586 225.405,157.324 224.645,157.453 224.132 C 157.581 223.619,157.847 223.200,158.043 223.200 C 158.240 223.200,158.400 222.945,158.400 222.633 C 158.400 222.322,158.601 222.000,158.847 221.918 C 160.435 221.388,159.174 213.261,157.215 211.400 C 156.752 210.960,155.989 210.197,155.519 209.705 C 155.050 209.214,154.064 208.698,153.328 208.560 C 152.593 208.422,151.893 208.150,151.772 207.955 C 151.489 207.496,146.915 207.491,146.632 207.948 M221.200 207.947 C 221.200 208.138,220.439 208.397,219.509 208.522 C 218.578 208.646,217.753 208.940,217.675 209.174 C 217.597 209.408,217.272 209.600,216.952 209.600 C 215.470 209.600,211.600 214.778,211.600 216.760 C 211.600 217.222,211.420 217.600,211.200 217.600 C 210.965 217.600,210.800 219.000,210.800 221.000 C 210.800 222.870,210.957 224.400,211.149 224.400 C 211.341 224.400,211.613 225.120,211.754 226.000 C 211.907 226.960,212.327 227.798,212.805 228.096 C 213.242 228.369,213.600 228.818,213.600 229.093 C 213.600 229.764,215.880 231.909,216.947 232.242 C 217.416 232.388,217.929 232.709,218.086 232.954 C 218.611 233.771,229.714 233.545,230.558 232.700 C 230.942 232.315,231.403 232.000,231.582 232.000 C 232.292 232.000,235.262 228.588,235.474 227.529 C 235.598 226.908,235.857 226.400,236.050 226.400 C 236.243 226.400,236.400 225.950,236.400 225.400 C 236.400 224.850,236.580 224.400,236.800 224.400 C 237.348 224.400,237.331 216.910,236.782 216.727 C 236.552 216.651,236.334 216.186,236.297 215.694 C 236.260 215.202,236.100 214.800,235.942 214.800 C 235.783 214.800,235.528 214.404,235.375 213.920 C 235.049 212.895,231.637 209.600,230.901 209.600 C 230.625 209.600,230.400 209.422,230.400 209.205 C 230.400 208.987,229.676 208.694,228.791 208.552 C 227.906 208.411,227.086 208.139,226.968 207.947 C 226.687 207.494,221.200 207.494,221.200 207.947 M100.000 210.000 C 100.000 210.220,99.737 210.400,99.416 210.400 C 98.737 210.400,96.800 212.371,96.800 213.063 C 96.800 213.321,96.576 213.608,96.301 213.700 C 95.422 213.993,95.382 220.420,96.247 222.244 C 99.384 228.853,112.400 227.457,112.400 220.511 C 112.400 219.790,112.580 219.200,112.800 219.200 C 113.020 219.200,113.200 218.660,113.200 218.000 C 113.200 217.340,113.020 216.800,112.800 216.800 C 112.580 216.800,112.400 216.210,112.400 215.489 C 112.400 213.661,109.927 210.400,108.542 210.400 C 108.244 210.400,108.000 210.220,108.000 210.000 C 108.000 209.760,106.400 209.600,104.000 209.600 C 101.600 209.600,100.000 209.760,100.000 210.000 M63.000 212.400 C 62.864 212.620,62.403 212.800,61.976 212.800 C 61.549 212.800,61.200 212.986,61.200 213.213 C 61.200 213.439,60.885 213.744,60.500 213.890 C 59.602 214.230,58.800 215.023,58.800 215.571 C 58.800 215.807,58.636 216.000,58.435 216.000 C 58.234 216.000,57.949 216.720,57.800 217.600 C 57.651 218.480,57.366 219.200,57.165 219.200 C 56.964 219.200,56.800 220.100,56.800 221.200 C 56.800 222.300,56.980 223.200,57.200 223.200 C 57.420 223.200,57.600 223.836,57.600 224.613 C 57.600 225.499,57.823 226.111,58.200 226.255 C 58.530 226.382,58.800 226.786,58.800 227.154 C 58.800 229.777,68.286 231.737,71.211 229.717 C 72.625 228.741,74.400 226.930,74.400 226.464 C 74.400 226.246,74.625 225.992,74.900 225.900 C 77.104 225.165,74.632 214.440,72.100 213.756 C 71.605 213.623,71.200 213.353,71.200 213.157 C 71.200 212.960,70.851 212.800,70.424 212.800 C 69.997 212.800,69.536 212.620,69.400 212.400 C 69.264 212.180,67.824 212.000,66.200 212.000 C 64.576 212.000,63.136 212.180,63.000 212.400 M278.400 216.400 C 278.400 216.620,277.871 216.800,277.224 216.800 C 276.577 216.800,275.936 216.980,275.800 217.200 C 275.664 217.420,275.216 217.600,274.805 217.600 C 274.394 217.600,273.811 217.846,273.510 218.147 C 273.209 218.448,272.566 218.820,272.081 218.974 C 271.597 219.128,271.200 219.422,271.200 219.627 C 271.200 219.832,271.007 220.000,270.771 220.000 C 270.265 220.000,269.200 221.000,269.200 221.476 C 269.200 221.658,268.750 222.293,268.200 222.887 C 267.650 223.480,267.200 224.153,267.200 224.383 C 267.200 224.612,267.022 224.800,266.805 224.800 C 266.587 224.800,266.294 225.524,266.152 226.409 C 266.011 227.294,265.730 228.119,265.529 228.244 C 265.060 228.533,265.173 237.600,265.645 237.600 C 265.840 237.600,266.000 237.977,266.000 238.438 C 266.000 239.365,267.192 241.600,267.686 241.600 C 267.859 241.600,268.001 241.825,268.002 242.100 C 268.005 242.808,270.380 245.307,271.910 246.211 C 272.620 246.630,273.200 247.114,273.200 247.286 C 273.200 247.459,273.605 247.601,274.100 247.602 C 274.595 247.604,275.516 247.874,276.146 248.202 C 277.426 248.870,285.784 249.073,286.172 248.445 C 286.293 248.250,287.044 247.968,287.841 247.819 C 289.309 247.543,289.695 247.317,291.456 245.700 C 291.995 245.205,292.578 244.800,292.751 244.800 C 292.923 244.800,293.306 244.350,293.600 243.800 C 293.894 243.250,294.269 242.800,294.433 242.800 C 295.015 242.800,296.842 239.004,297.074 237.315 C 297.203 236.372,297.464 235.600,297.654 235.600 C 297.844 235.600,298.000 234.149,298.000 232.376 C 298.000 230.329,297.854 229.243,297.600 229.400 C 297.366 229.545,297.200 229.125,297.200 228.385 C 297.200 226.992,296.416 225.258,294.421 222.238 C 293.417 220.719,288.917 217.600,287.729 217.600 C 287.218 217.600,286.800 217.420,286.800 217.200 C 286.800 216.980,286.260 216.800,285.600 216.800 C 284.940 216.800,284.400 216.620,284.400 216.400 C 284.400 216.169,283.133 216.000,281.400 216.000 C 279.667 216.000,278.400 216.169,278.400 216.400 M164.605 219.379 C 163.727 219.705,162.947 220.158,162.871 220.386 C 162.795 220.614,162.536 220.800,162.295 220.800 C 161.690 220.800,159.200 223.575,159.200 224.250 C 159.200 224.553,159.020 224.800,158.800 224.800 C 158.580 224.800,158.400 225.149,158.400 225.576 C 158.400 226.003,158.220 226.464,158.000 226.600 C 156.969 227.237,157.851 234.011,159.133 235.293 C 159.390 235.550,159.600 236.084,159.600 236.480 C 159.600 236.876,159.753 237.200,159.941 237.200 C 160.128 237.200,160.846 237.740,161.537 238.400 C 162.228 239.060,163.049 239.600,163.363 239.600 C 163.677 239.600,164.008 239.825,164.100 240.100 C 164.221 240.462,165.570 240.600,169.000 240.600 C 172.431 240.600,173.779 240.462,173.900 240.100 C 173.992 239.825,174.305 239.600,174.597 239.600 C 175.649 239.600,178.739 236.134,179.019 234.640 C 179.167 233.848,179.449 233.200,179.645 233.200 C 179.840 233.200,180.000 231.760,180.000 230.000 C 180.000 228.240,179.840 226.800,179.645 226.800 C 179.449 226.800,179.173 226.183,179.032 225.429 C 178.890 224.675,178.645 224.000,178.487 223.929 C 178.329 223.858,177.696 223.125,177.080 222.300 C 176.463 221.475,175.698 220.800,175.380 220.800 C 175.061 220.800,174.799 220.665,174.797 220.500 C 174.783 219.166,167.376 218.352,164.605 219.379 M81.900 223.053 C 81.515 223.166,81.200 223.425,81.200 223.629 C 81.200 223.833,80.930 224.000,80.600 224.000 C 79.916 224.000,78.920 224.920,77.900 226.493 C 76.912 228.015,76.907 233.802,77.891 235.211 C 79.176 237.049,79.775 237.600,80.489 237.600 C 80.880 237.600,81.200 237.744,81.200 237.920 C 81.200 238.876,86.857 239.679,87.400 238.800 C 87.536 238.580,87.959 238.400,88.340 238.400 C 89.210 238.400,92.000 235.809,92.000 235.001 C 92.000 234.670,92.180 234.400,92.400 234.400 C 92.637 234.400,92.800 232.933,92.800 230.800 C 92.800 228.820,92.640 227.200,92.443 227.200 C 92.247 227.200,91.974 226.750,91.836 226.200 C 91.698 225.650,91.416 225.200,91.211 225.200 C 91.005 225.200,90.355 224.719,89.767 224.131 C 88.699 223.063,84.037 222.424,81.900 223.053 M176.800 240.000 C 176.800 240.220,176.612 240.400,176.383 240.400 C 175.362 240.400,172.009 243.854,171.744 245.179 C 171.610 245.850,171.343 246.400,171.150 246.400 C 170.958 246.400,170.800 247.840,170.800 249.600 C 170.800 251.467,170.967 252.800,171.200 252.800 C 171.420 252.800,171.600 253.250,171.600 253.800 C 171.600 254.350,171.751 254.800,171.936 254.800 C 172.120 254.800,172.479 255.255,172.732 255.811 C 172.986 256.367,173.510 256.940,173.897 257.083 C 174.283 257.227,174.910 257.693,175.288 258.120 C 175.701 258.585,176.702 258.977,177.788 259.100 C 178.785 259.212,179.600 259.461,179.600 259.652 C 179.600 259.843,180.140 260.000,180.800 260.000 C 181.460 260.000,182.000 259.820,182.000 259.600 C 182.000 259.380,182.680 259.200,183.511 259.200 C 186.012 259.200,189.859 255.950,190.258 253.500 C 190.392 252.675,190.659 252.000,190.851 252.000 C 191.043 252.000,191.200 250.830,191.200 249.400 C 191.200 247.933,191.026 246.800,190.800 246.800 C 190.580 246.800,190.400 246.390,190.400 245.889 C 190.400 244.417,188.697 242.293,186.455 240.969 C 185.765 240.561,185.200 240.086,185.200 239.914 C 185.200 239.741,183.310 239.600,181.000 239.600 C 178.467 239.600,176.800 239.759,176.800 240.000 M226.400 241.470 C 225.850 241.586,225.310 241.798,225.200 241.940 C 225.090 242.083,224.370 242.550,223.600 242.977 C 222.035 243.845,220.000 245.735,220.000 246.320 C 220.000 246.530,219.730 246.926,219.400 247.200 C 219.070 247.474,218.800 248.126,218.800 248.649 C 218.800 249.172,218.620 249.600,218.400 249.600 C 218.159 249.600,218.000 251.275,218.000 253.824 C 218.000 256.191,218.157 257.950,218.356 257.827 C 218.552 257.706,218.823 258.196,218.958 258.916 C 219.093 259.637,219.563 260.485,220.002 260.801 C 220.441 261.118,220.800 261.607,220.800 261.888 C 220.800 262.170,220.961 262.400,221.158 262.400 C 221.355 262.400,221.940 262.847,222.458 263.393 C 222.976 263.939,223.715 264.389,224.100 264.393 C 224.485 264.397,224.800 264.580,224.800 264.800 C 224.800 265.020,225.070 265.200,225.400 265.200 C 225.730 265.200,226.000 265.380,226.000 265.600 C 226.000 265.841,227.659 266.000,230.176 266.000 C 232.529 266.000,234.461 265.825,234.600 265.600 C 234.736 265.380,235.197 265.200,235.624 265.200 C 236.051 265.200,236.400 265.020,236.400 264.800 C 236.400 264.580,236.677 264.400,237.015 264.400 C 237.645 264.400,241.200 260.995,241.200 260.392 C 241.200 260.208,241.515 259.742,241.900 259.357 C 242.788 258.469,242.966 248.789,242.100 248.500 C 241.825 248.408,241.600 247.988,241.600 247.567 C 241.600 247.145,241.440 246.800,241.243 246.800 C 241.047 246.800,240.777 246.395,240.643 245.900 C 240.371 244.896,237.270 242.400,236.294 242.400 C 235.949 242.400,235.598 242.194,235.514 241.943 C 235.352 241.457,228.222 241.087,226.400 241.470 M68.800 243.087 C 64.281 245.245,63.217 251.711,66.792 255.287 L 68.505 257.000 71.986 257.137 C 74.581 257.240,75.612 257.132,76.034 256.715 C 76.345 256.407,76.914 256.036,77.298 255.891 C 78.922 255.276,79.646 253.214,79.519 249.561 L 79.400 246.123 77.663 244.504 C 75.274 242.276,71.695 241.704,68.800 243.087 M327.400 249.200 C 327.264 249.420,326.353 249.600,325.376 249.600 C 324.399 249.600,323.600 249.760,323.600 249.955 C 323.600 250.151,322.960 250.431,322.179 250.578 C 320.565 250.880,319.769 251.436,317.209 254.042 C 314.828 256.466,314.481 256.937,314.172 258.170 C 314.029 258.740,313.751 259.306,313.556 259.427 C 313.360 259.548,313.200 260.166,313.200 260.800 C 313.200 261.434,313.020 262.064,312.800 262.200 C 312.580 262.336,312.400 263.686,312.400 265.200 C 312.400 266.714,312.580 268.064,312.800 268.200 C 313.020 268.336,313.200 269.067,313.200 269.824 C 313.200 270.581,313.380 271.200,313.600 271.200 C 313.820 271.200,314.000 271.425,313.999 271.700 C 313.998 272.481,317.626 277.600,318.181 277.600 C 318.453 277.600,318.995 277.953,319.386 278.384 C 319.776 278.815,320.209 279.147,320.348 279.121 C 320.789 279.037,322.189 279.725,322.485 280.171 C 323.729 282.042,336.209 280.153,338.729 277.712 C 339.019 277.430,339.424 277.200,339.629 277.200 C 339.833 277.200,340.000 276.973,340.000 276.696 C 340.000 276.419,340.430 275.728,340.956 275.160 C 342.073 273.956,343.200 271.893,343.200 271.053 C 343.200 270.731,343.425 270.392,343.700 270.300 C 344.519 270.027,344.336 260.997,343.473 259.102 C 343.098 258.278,342.805 257.499,342.822 257.372 C 342.839 257.244,342.506 256.838,342.083 256.470 C 341.661 256.101,341.187 255.395,341.030 254.900 C 340.874 254.405,340.577 254.000,340.370 254.000 C 340.164 254.000,339.603 253.550,339.125 253.000 C 338.647 252.450,338.013 252.000,337.715 252.000 C 337.418 252.000,337.076 251.743,336.956 251.430 C 336.836 251.116,336.032 250.741,335.171 250.595 C 334.309 250.449,333.503 250.166,333.378 249.965 C 333.254 249.764,332.454 249.600,331.600 249.600 C 330.746 249.600,329.936 249.420,329.800 249.200 C 329.664 248.980,329.124 248.800,328.600 248.800 C 328.076 248.800,327.536 248.980,327.400 249.200 M269.200 262.400 C 269.200 262.620,268.740 262.800,268.177 262.800 C 266.166 262.800,260.000 267.310,260.000 268.781 C 260.000 269.011,259.820 269.200,259.600 269.200 C 259.380 269.200,259.199 269.515,259.198 269.900 C 259.196 270.285,258.926 271.116,258.598 271.746 C 257.897 273.089,257.726 281.600,258.400 281.600 C 258.620 281.600,258.800 282.028,258.800 282.551 C 258.800 283.074,259.070 283.726,259.400 284.000 C 259.730 284.274,260.000 284.679,260.000 284.900 C 260.000 285.551,264.491 289.608,265.487 289.858 C 265.989 289.984,266.400 290.247,266.400 290.443 C 266.400 290.640,266.929 290.800,267.576 290.800 C 268.223 290.800,268.864 290.980,269.000 291.200 C 269.634 292.227,277.418 291.532,278.400 290.362 C 278.510 290.230,279.095 290.002,279.700 289.854 C 280.305 289.706,280.800 289.408,280.800 289.192 C 280.800 288.977,281.060 288.800,281.377 288.800 C 281.695 288.800,282.206 288.441,282.513 288.003 C 282.820 287.564,283.206 287.339,283.369 287.503 C 283.533 287.666,283.607 287.597,283.533 287.349 C 283.460 287.102,283.895 286.338,284.500 285.653 C 285.105 284.968,285.600 284.225,285.600 284.003 C 285.600 283.782,285.769 283.600,285.975 283.600 C 286.182 283.600,286.461 282.745,286.596 281.700 C 286.731 280.655,287.012 279.487,287.220 279.105 C 287.695 278.237,287.723 274.400,287.254 274.400 C 287.064 274.400,286.798 273.592,286.663 272.604 C 286.309 270.028,284.584 267.551,281.018 264.500 C 280.697 264.225,280.246 264.000,280.017 264.000 C 279.788 264.000,279.600 263.826,279.600 263.614 C 279.600 263.401,278.700 263.108,277.600 262.962 C 276.500 262.816,275.600 262.540,275.600 262.348 C 275.600 262.157,274.160 262.000,272.400 262.000 C 270.533 262.000,269.200 262.167,269.200 262.400 M182.013 263.071 C 181.470 263.185,180.729 263.621,180.366 264.039 C 180.003 264.458,179.542 264.800,179.342 264.800 C 178.883 264.800,177.600 266.276,177.600 266.805 C 177.600 267.022,177.420 267.200,177.200 267.200 C 176.980 267.200,176.800 267.560,176.800 268.000 C 176.800 268.440,176.620 268.800,176.400 268.800 C 176.165 268.800,176.000 270.200,176.000 272.200 C 176.000 274.200,176.165 275.600,176.400 275.600 C 176.620 275.600,176.800 275.960,176.800 276.400 C 176.800 276.840,176.980 277.200,177.200 277.200 C 177.420 277.200,177.600 277.430,177.600 277.711 C 177.600 278.198,178.961 279.600,179.433 279.600 C 179.556 279.600,179.927 279.870,180.257 280.200 C 180.587 280.530,181.294 280.800,181.829 280.800 C 182.363 280.800,182.800 280.980,182.800 281.200 C 182.800 281.426,183.933 281.600,185.400 281.600 C 186.867 281.600,188.000 281.426,188.000 281.200 C 188.000 280.980,188.437 280.800,188.971 280.800 C 189.506 280.800,190.213 280.530,190.543 280.200 C 190.873 279.870,191.285 279.600,191.459 279.600 C 191.945 279.600,193.600 277.543,193.600 276.938 C 193.600 276.642,193.780 276.400,194.000 276.400 C 194.220 276.400,194.400 275.770,194.400 275.000 C 194.400 274.230,194.580 273.600,194.800 273.600 C 195.020 273.600,195.200 272.880,195.200 272.000 C 195.200 271.120,195.020 270.400,194.800 270.400 C 194.580 270.400,194.400 269.860,194.400 269.200 C 194.400 268.540,194.220 268.000,194.000 268.000 C 193.780 268.000,193.600 267.745,193.600 267.434 C 193.600 266.780,191.390 264.465,189.970 263.631 C 188.981 263.050,183.833 262.688,182.013 263.071 M219.600 275.444 C 217.091 276.342,214.179 278.946,213.744 280.680 C 213.617 281.186,213.373 281.600,213.202 281.600 C 212.507 281.600,211.741 287.501,212.357 288.117 C 212.601 288.361,212.800 289.064,212.800 289.680 C 212.800 290.296,212.960 290.800,213.157 290.800 C 213.353 290.800,213.624 291.242,213.760 291.783 C 213.896 292.324,214.455 293.250,215.003 293.841 C 215.552 294.433,216.000 295.058,216.000 295.231 C 216.000 295.405,216.405 295.672,216.900 295.827 C 217.395 295.981,217.913 296.283,218.051 296.497 C 218.188 296.712,219.133 296.981,220.151 297.096 C 221.168 297.210,222.000 297.479,222.000 297.692 C 222.000 298.117,224.268 297.927,227.314 297.246 C 230.661 296.499,234.400 292.974,234.400 290.568 C 234.400 290.255,234.580 290.000,234.800 290.000 C 235.039 290.000,235.200 288.467,235.200 286.200 C 235.200 283.933,235.039 282.400,234.800 282.400 C 234.580 282.400,234.400 282.130,234.400 281.800 C 234.400 281.470,234.220 281.200,234.000 281.200 C 233.780 281.200,233.600 280.880,233.600 280.489 C 233.600 280.098,233.285 279.480,232.900 279.117 C 232.515 278.754,231.984 278.219,231.719 277.928 C 230.898 277.026,230.050 276.400,229.650 276.400 C 229.439 276.400,229.192 276.175,229.100 275.900 C 228.929 275.384,220.849 274.996,219.600 275.444 M176.700 286.676 C 176.315 286.776,176.000 287.025,176.000 287.229 C 176.000 287.433,175.822 287.600,175.605 287.600 C 174.902 287.600,173.600 288.957,173.600 289.689 C 173.600 290.080,173.420 290.400,173.200 290.400 C 172.980 290.400,172.800 290.670,172.800 291.000 C 172.800 291.330,172.620 291.600,172.400 291.600 C 171.823 291.600,171.903 296.832,172.500 298.117 C 172.775 298.709,173.135 299.195,173.300 299.197 C 173.465 299.199,173.606 299.425,173.613 299.700 C 173.700 302.961,186.400 304.865,186.400 301.617 C 186.400 301.417,186.760 301.140,187.199 301.000 C 187.639 300.861,188.108 300.309,188.242 299.773 C 188.377 299.238,188.627 298.800,188.798 298.800 C 189.195 298.800,189.675 296.614,189.675 294.800 C 189.675 292.986,189.195 290.800,188.798 290.800 C 188.627 290.800,188.377 290.362,188.242 289.827 C 188.108 289.291,187.648 288.742,187.220 288.606 C 186.791 288.470,186.336 288.030,186.209 287.627 C 185.866 286.548,179.591 285.920,176.700 286.676 M291.600 300.400 C 291.600 300.620,291.190 300.800,290.689 300.800 C 288.652 300.800,284.137 305.243,283.055 308.313 C 282.246 310.607,282.217 318.555,283.015 319.121 C 283.231 319.275,283.766 320.095,284.204 320.944 C 284.642 321.793,285.224 322.577,285.498 322.686 C 285.771 322.795,285.912 323.019,285.809 323.185 C 285.707 323.351,286.248 323.823,287.011 324.234 C 287.775 324.645,288.400 325.121,288.400 325.291 C 288.400 325.461,288.655 325.600,288.967 325.600 C 289.278 325.600,289.599 325.798,289.680 326.039 C 289.760 326.281,290.675 326.574,291.713 326.691 C 292.751 326.808,293.600 327.061,293.600 327.252 C 293.600 327.443,294.770 327.600,296.200 327.600 C 297.667 327.600,298.800 327.426,298.800 327.200 C 298.800 326.980,299.329 326.800,299.976 326.800 C 300.623 326.800,301.266 326.617,301.404 326.393 C 301.542 326.170,301.797 326.074,301.970 326.181 C 302.704 326.635,307.894 321.548,308.276 320.000 C 308.412 319.450,308.633 318.910,308.768 318.800 C 310.198 317.633,310.181 309.798,308.746 308.220 C 308.556 308.011,308.400 307.524,308.400 307.138 C 308.400 306.460,304.442 302.000,303.840 302.000 C 303.677 302.000,303.273 301.730,302.943 301.400 C 302.613 301.070,301.996 300.800,301.571 300.800 C 301.147 300.800,300.800 300.620,300.800 300.400 C 300.800 300.157,299.000 300.000,296.200 300.000 C 293.400 300.000,291.600 300.157,291.600 300.400 M245.000 301.600 C 244.864 301.820,244.324 302.000,243.800 302.000 C 243.276 302.000,242.748 302.160,242.627 302.356 C 242.506 302.551,241.940 302.829,241.369 302.972 C 240.798 303.115,239.905 303.630,239.385 304.116 C 238.864 304.602,238.205 305.216,237.919 305.481 C 236.439 306.852,235.200 309.439,235.200 311.160 C 235.200 311.842,235.020 312.400,234.800 312.400 C 234.580 312.400,234.400 313.300,234.400 314.400 C 234.400 315.500,234.557 316.400,234.748 316.400 C 234.939 316.400,235.192 317.249,235.309 318.287 C 235.426 319.325,235.719 320.240,235.961 320.320 C 236.202 320.401,236.400 320.643,236.400 320.859 C 236.400 321.744,240.699 325.495,242.502 326.184 C 244.677 327.015,252.427 326.918,252.714 326.057 C 252.798 325.806,253.122 325.600,253.433 325.600 C 253.745 325.600,254.000 325.440,254.000 325.243 C 254.000 325.047,254.405 324.778,254.900 324.644 C 255.395 324.511,256.250 323.761,256.800 322.977 C 257.350 322.193,258.036 321.295,258.324 320.980 C 258.613 320.666,258.952 319.776,259.077 319.004 C 259.202 318.232,259.461 317.600,259.652 317.600 C 259.844 317.600,260.000 315.980,260.000 314.000 C 260.000 312.020,259.840 310.400,259.645 310.400 C 259.449 310.400,259.176 309.799,259.039 309.065 C 258.708 307.303,254.874 303.275,253.210 302.942 C 252.544 302.809,252.000 302.543,252.000 302.350 C 252.000 302.157,251.460 302.000,250.800 302.000 C 250.140 302.000,249.600 301.820,249.600 301.600 C 249.600 301.380,248.621 301.200,247.424 301.200 C 246.227 301.200,245.136 301.380,245.000 301.600 M204.400 303.600 C 204.400 303.820,203.680 304.000,202.800 304.000 C 201.920 304.000,201.200 304.180,201.200 304.400 C 201.200 304.620,200.906 304.800,200.547 304.800 C 199.524 304.800,197.200 306.396,197.200 307.099 C 197.200 307.448,197.077 307.610,196.927 307.460 C 196.776 307.310,196.333 307.865,195.940 308.693 C 194.494 311.748,195.193 320.400,196.886 320.400 C 197.059 320.400,197.200 320.670,197.200 321.000 C 197.200 321.330,197.388 321.600,197.617 321.600 C 197.846 321.600,198.427 321.967,198.909 322.415 C 199.390 322.864,200.193 323.334,200.692 323.459 C 201.191 323.584,201.600 323.847,201.600 324.043 C 201.600 324.240,203.220 324.400,205.200 324.400 C 207.333 324.400,208.800 324.237,208.800 324.000 C 208.800 323.780,209.070 323.600,209.400 323.600 C 209.730 323.600,210.000 323.420,210.000 323.200 C 210.000 322.980,210.288 322.800,210.640 322.800 C 211.361 322.800,214.000 320.318,214.000 319.640 C 214.000 319.398,214.180 319.200,214.400 319.200 C 214.620 319.200,214.800 318.840,214.800 318.400 C 214.800 317.960,214.980 317.600,215.200 317.600 C 215.435 317.600,215.600 316.208,215.600 314.224 C 215.600 312.367,215.420 310.736,215.200 310.600 C 214.980 310.464,214.800 310.003,214.800 309.576 C 214.800 309.149,214.623 308.800,214.408 308.800 C 214.192 308.800,213.902 308.350,213.764 307.800 C 213.626 307.250,213.387 306.800,213.232 306.800 C 213.077 306.800,212.602 306.475,212.175 306.079 C 211.002 304.987,208.812 304.000,207.562 304.000 C 206.949 304.000,206.336 303.820,206.200 303.600 C 206.064 303.380,205.603 303.200,205.176 303.200 C 204.749 303.200,204.400 303.380,204.400 303.600 M163.589 306.691 C 161.751 307.976,161.200 308.575,161.200 309.289 C 161.200 309.680,161.020 310.000,160.800 310.000 C 160.580 310.000,160.400 310.450,160.400 311.000 C 160.400 311.550,160.220 312.000,160.000 312.000 C 159.432 312.000,159.504 315.233,160.100 316.517 C 160.375 317.109,160.735 317.595,160.900 317.597 C 161.065 317.599,161.200 317.909,161.200 318.287 C 161.200 319.062,163.041 320.800,163.862 320.800 C 164.158 320.800,164.400 320.980,164.400 321.200 C 164.400 321.437,165.867 321.600,168.000 321.600 C 170.133 321.600,171.600 321.437,171.600 321.200 C 171.600 320.980,171.856 320.800,172.169 320.800 C 172.482 320.800,173.308 320.230,174.004 319.534 C 177.468 316.070,176.663 309.671,172.387 306.676 C 171.003 305.707,164.982 305.717,163.589 306.691 M145.500 319.476 C 145.115 319.576,144.800 319.804,144.800 319.983 C 144.800 320.161,144.427 320.404,143.970 320.524 C 143.514 320.643,143.043 321.114,142.924 321.570 C 142.804 322.027,142.548 322.400,142.353 322.400 C 142.159 322.400,142.000 322.670,142.000 323.000 C 142.000 323.330,141.820 323.600,141.600 323.600 C 141.369 323.600,141.200 324.867,141.200 326.600 C 141.200 328.333,141.369 329.600,141.600 329.600 C 141.820 329.600,142.000 329.794,142.000 330.031 C 142.000 331.670,145.383 333.794,148.223 333.937 C 151.037 334.079,153.600 333.355,153.600 332.417 C 153.600 332.217,153.926 331.950,154.324 331.824 C 155.824 331.348,157.444 323.600,156.043 323.600 C 155.847 323.600,155.577 323.162,155.442 322.627 C 155.308 322.091,154.848 321.542,154.420 321.406 C 153.991 321.270,153.536 320.828,153.407 320.423 C 153.059 319.324,148.273 318.751,145.500 319.476 M174.969 323.250 C 174.850 323.443,174.313 323.600,173.776 323.600 C 173.239 323.600,172.800 323.760,172.800 323.957 C 172.800 324.153,172.362 324.423,171.827 324.558 C 171.291 324.692,170.739 325.161,170.600 325.601 C 170.460 326.040,170.178 326.400,169.973 326.400 C 169.768 326.400,169.600 326.655,169.600 326.967 C 169.600 327.278,169.375 327.608,169.100 327.700 C 168.739 327.820,168.600 329.129,168.600 332.400 C 168.600 335.671,168.739 336.980,169.100 337.100 C 169.375 337.192,169.600 337.532,169.600 337.856 C 169.600 338.673,171.988 340.785,173.200 341.039 C 173.750 341.154,174.513 341.417,174.895 341.624 C 175.277 341.831,176.404 342.000,177.400 342.000 C 178.396 342.000,179.523 341.831,179.905 341.624 C 180.287 341.417,181.050 341.154,181.600 341.039 C 182.812 340.785,185.200 338.673,185.200 337.856 C 185.200 337.532,185.425 337.192,185.700 337.100 C 186.061 336.980,186.200 335.671,186.200 332.400 C 186.200 329.129,186.061 327.820,185.700 327.700 C 185.425 327.608,185.200 327.278,185.200 326.967 C 185.200 326.655,185.032 326.400,184.827 326.400 C 184.622 326.400,184.345 326.058,184.213 325.640 C 184.080 325.222,183.528 324.768,182.986 324.632 C 182.444 324.496,182.000 324.208,182.000 323.992 C 182.000 323.777,181.561 323.600,181.024 323.600 C 180.487 323.600,179.950 323.443,179.831 323.250 C 179.712 323.058,178.618 322.900,177.400 322.900 C 176.182 322.900,175.088 323.058,174.969 323.250 M205.900 328.651 C 205.515 328.765,205.200 329.025,205.200 329.229 C 205.200 329.433,204.932 329.600,204.605 329.600 C 204.021 329.600,202.746 330.489,201.851 331.519 C 201.603 331.805,200.950 332.517,200.400 333.101 C 199.081 334.502,198.850 343.303,200.100 344.556 C 200.485 344.941,200.800 345.403,200.800 345.581 C 200.800 346.105,203.304 348.400,203.876 348.400 C 204.164 348.400,204.400 348.536,204.400 348.702 C 204.400 349.914,213.529 350.814,213.920 349.640 C 214.001 349.398,214.412 349.200,214.833 349.200 C 215.255 349.200,215.600 349.020,215.600 348.800 C 215.600 348.580,215.798 348.400,216.040 348.400 C 216.718 348.400,219.200 345.761,219.200 345.040 C 219.200 344.688,219.380 344.400,219.600 344.400 C 219.820 344.400,220.000 344.051,220.000 343.624 C 220.000 343.197,220.180 342.736,220.400 342.600 C 220.620 342.464,220.800 340.934,220.800 339.200 C 220.800 337.466,220.620 335.936,220.400 335.800 C 220.180 335.664,220.000 335.203,220.000 334.776 C 220.000 334.349,219.840 334.000,219.643 334.000 C 219.447 334.000,219.174 333.550,219.036 333.000 C 218.898 332.450,218.608 332.000,218.392 332.000 C 218.177 332.000,218.000 331.750,218.000 331.443 C 218.000 331.137,217.550 330.774,217.000 330.636 C 216.450 330.498,216.000 330.208,216.000 329.992 C 216.000 329.777,215.745 329.600,215.433 329.600 C 215.122 329.600,214.798 329.394,214.714 329.143 C 214.556 328.667,207.227 328.257,205.900 328.651 M244.600 333.965 C 242.528 334.500,241.600 334.883,241.600 335.203 C 241.600 335.374,241.150 335.626,240.600 335.764 C 240.050 335.902,239.600 336.192,239.600 336.408 C 239.600 336.623,239.330 336.800,239.000 336.800 C 238.670 336.800,238.400 337.070,238.400 337.400 C 238.400 337.730,238.223 338.000,238.008 338.000 C 237.792 338.000,237.502 338.450,237.364 339.000 C 237.226 339.550,236.997 340.000,236.854 340.000 C 235.608 340.000,234.778 348.938,235.918 350.078 C 236.183 350.343,236.400 350.884,236.400 351.280 C 236.400 351.676,236.580 352.000,236.800 352.000 C 237.020 352.000,237.200 352.217,237.200 352.483 C 237.200 352.997,239.971 355.579,240.536 355.592 C 240.721 355.597,241.200 356.005,241.601 356.500 C 242.468 357.570,252.358 357.926,252.700 356.900 C 252.792 356.625,253.030 356.400,253.229 356.400 C 254.092 356.400,258.000 352.510,258.000 351.650 C 258.000 351.439,258.225 351.192,258.500 351.100 C 258.863 350.979,259.000 349.617,259.000 346.129 C 259.000 340.661,258.744 339.886,256.119 337.400 C 253.688 335.098,253.296 334.800,252.697 334.800 C 252.402 334.800,251.972 334.612,251.742 334.382 C 251.210 333.850,246.183 333.557,244.600 333.965 " stroke="none" fill="#d72328" fill-rule="evenodd"></path><path id="path4" d="M118.800 239.466 C 116.176 240.531,114.533 244.488,115.355 247.762 C 116.429 252.044,122.897 253.557,126.400 250.346 C 128.537 248.388,128.548 242.956,126.419 240.804 C 125.033 239.401,120.794 238.657,118.800 239.466 M103.900 243.323 C 103.075 243.553,102.400 243.889,102.400 244.071 C 102.400 244.252,102.181 244.400,101.913 244.400 C 100.358 244.400,98.581 248.348,98.970 250.938 C 99.257 252.853,101.654 256.000,102.826 256.000 C 103.226 256.000,103.664 256.180,103.800 256.400 C 103.936 256.620,104.757 256.800,105.624 256.800 C 106.491 256.800,107.200 256.620,107.200 256.400 C 107.200 256.180,107.620 256.000,108.134 256.000 C 109.576 256.000,111.895 253.173,112.217 251.024 C 112.703 247.783,110.470 244.037,107.722 243.482 C 107.105 243.358,106.330 243.177,106.000 243.080 C 105.670 242.983,104.725 243.092,103.900 243.323 M134.800 243.953 C 134.800 244.148,134.449 244.398,134.020 244.511 C 131.847 245.079,130.664 251.256,132.278 253.611 C 133.204 254.962,134.413 256.000,135.061 256.000 C 135.358 256.000,135.600 256.180,135.600 256.400 C 135.600 256.620,136.590 256.800,137.800 256.800 C 139.010 256.800,140.000 256.620,140.000 256.400 C 140.000 256.180,140.326 256.000,140.724 256.000 C 141.845 256.000,143.947 253.691,144.237 252.141 C 144.586 250.281,144.212 246.671,143.651 246.484 C 143.403 246.401,143.200 246.155,143.200 245.938 C 143.200 245.411,142.167 244.400,141.629 244.400 C 141.393 244.400,141.200 244.220,141.200 244.000 C 141.200 243.767,139.867 243.600,138.000 243.600 C 136.240 243.600,134.800 243.759,134.800 243.953 M146.050 253.868 C 144.777 254.137,142.000 256.933,142.000 257.945 C 142.000 258.389,141.820 258.864,141.600 259.000 C 141.380 259.136,141.200 259.766,141.200 260.400 C 141.200 261.034,141.380 261.664,141.600 261.800 C 141.820 261.936,142.000 262.359,142.000 262.740 C 142.000 263.969,144.657 266.400,145.999 266.400 C 146.660 266.400,147.200 266.580,147.200 266.800 C 147.200 267.020,147.650 267.200,148.200 267.200 C 148.750 267.200,149.200 267.020,149.200 266.800 C 149.200 266.580,149.740 266.400,150.401 266.400 C 151.755 266.400,154.400 263.964,154.400 262.717 C 154.400 262.322,154.580 262.000,154.800 262.000 C 155.020 262.000,155.200 261.280,155.200 260.400 C 155.200 259.520,155.020 258.800,154.800 258.800 C 154.580 258.800,154.400 258.426,154.400 257.969 C 154.400 255.454,149.627 253.110,146.050 253.868 M89.073 256.956 C 88.263 257.742,87.600 258.648,87.600 258.969 C 87.600 259.290,87.420 259.664,87.200 259.800 C 86.309 260.350,87.116 265.187,88.100 265.197 C 88.265 265.199,88.400 265.393,88.400 265.629 C 88.400 266.167,89.411 267.200,89.938 267.200 C 90.155 267.200,90.408 267.425,90.500 267.700 C 90.614 268.041,91.626 268.200,93.686 268.200 L 96.705 268.200 98.352 266.451 C 99.997 264.704,100.960 258.800,99.600 258.800 C 99.380 258.800,99.200 258.558,99.200 258.261 C 99.200 256.596,97.626 255.804,94.039 255.663 L 90.545 255.526 89.073 256.956 M149.189 270.684 C 143.375 274.702,145.548 282.800,152.439 282.800 C 156.999 282.800,159.200 280.723,159.200 276.419 C 159.200 271.428,153.137 267.955,149.189 270.684 M87.600 271.600 C 87.600 271.820,87.172 272.000,86.650 272.000 C 83.909 272.000,81.619 278.245,83.245 281.284 C 85.807 286.071,93.703 285.589,95.627 280.528 C 96.958 277.029,94.669 272.000,91.746 272.000 C 91.226 272.000,90.800 271.820,90.800 271.600 C 90.800 271.380,90.080 271.200,89.200 271.200 C 88.320 271.200,87.600 271.380,87.600 271.600 M144.031 287.436 C 143.354 288.005,142.800 288.725,142.800 289.036 C 142.800 289.346,142.620 289.600,142.400 289.600 C 141.077 289.600,141.998 295.530,143.585 297.232 C 146.021 299.845,152.573 299.806,153.408 297.174 C 153.543 296.748,153.822 296.400,154.027 296.400 C 154.232 296.400,154.400 296.051,154.400 295.624 C 154.400 295.197,154.580 294.736,154.800 294.600 C 155.020 294.464,155.200 293.564,155.200 292.600 C 155.200 291.636,155.020 290.736,154.800 290.600 C 154.580 290.464,154.400 290.084,154.400 289.756 C 154.400 286.785,146.820 285.088,144.031 287.436 M90.800 287.957 C 90.800 288.153,90.350 288.426,89.800 288.564 C 89.250 288.702,88.800 288.979,88.800 289.179 C 88.800 289.379,88.573 289.781,88.295 290.071 C 85.587 292.908,86.807 298.065,90.715 300.300 C 92.070 301.075,95.699 300.940,96.625 300.080 C 97.051 299.684,97.732 299.233,98.138 299.078 C 98.544 298.923,98.970 298.437,99.085 297.998 C 99.199 297.559,99.452 297.200,99.647 297.200 C 99.841 297.200,100.000 295.885,100.000 294.278 C 100.000 291.246,99.509 290.336,96.669 288.100 C 95.946 287.531,90.800 287.405,90.800 287.957 M101.043 298.524 C 96.297 301.510,96.346 307.892,101.136 310.700 C 103.031 311.810,107.002 311.242,108.825 309.600 C 111.809 306.912,110.524 298.875,107.100 298.813 C 106.715 298.806,106.400 298.620,106.400 298.400 C 106.400 297.840,101.966 297.942,101.043 298.524 M133.600 298.400 C 133.600 298.620,133.346 298.800,133.036 298.800 C 132.196 298.800,130.400 301.121,130.400 302.207 C 130.400 302.727,130.220 303.264,130.000 303.400 C 129.780 303.536,129.600 304.076,129.600 304.600 C 129.600 305.124,129.780 305.664,130.000 305.800 C 130.220 305.936,130.400 306.468,130.400 306.981 C 130.400 309.011,133.487 311.200,136.349 311.200 C 141.508 311.200,144.603 306.531,142.608 301.758 C 141.992 300.284,140.563 298.836,139.700 298.813 C 139.425 298.806,139.200 298.620,139.200 298.400 C 139.200 298.171,138.000 298.000,136.400 298.000 C 134.800 298.000,133.600 298.171,133.600 298.400 M119.200 302.400 C 118.870 302.594,118.150 302.848,117.600 302.966 C 115.145 303.490,114.212 304.977,114.060 308.605 L 113.920 311.945 115.531 313.673 L 117.142 315.400 120.237 315.400 C 122.357 315.400,123.385 315.243,123.499 314.900 C 123.591 314.625,123.845 314.400,124.062 314.400 C 125.275 314.400,126.800 311.382,126.800 308.980 C 126.800 305.533,124.742 302.800,122.146 302.800 C 121.406 302.800,120.800 302.620,120.800 302.400 C 120.800 301.917,120.022 301.917,119.200 302.400 " stroke="none" fill="#afb0b3" fill-rule="evenodd"></path></g></svg>
